<svg width="384" height="449" viewBox="0 0 384 449" fill="none" xmlns="http://www.w3.org/2000/svg">
<path d="M329.1 110.9C266.6 48.3999 173.3 48.3999 110.8 110.9C48.3001 173.4 48.3001 274.7 110.8 337.2C173.3 399.7 266.6 399.7 329.1 337.2C341.6 324.7 361.9 324.7 374.4 337.2C386.9 349.7 386.9 370 374.4 382.5C286.9 470 153.1 470 65.6001 382.5C-21.8999 295 -21.8999 153.2 65.6001 65.7C153.1 -21.8 286.9 -21.8 374.4 65.7C386.9 78.2 386.9 98.5 374.4 111C361.9 123.5 341.6 123.5 329.1 111V110.9Z" fill="#CCFF00"/>
</svg>
