<svg width="1057" height="1058" viewBox="0 0 1057 1058" fill="none" xmlns="http://www.w3.org/2000/svg">
<path d="M215.6 842.14L34.84 661.38C13.43 639.37 0.0799561 608.3 0.0799561 577.95C0.0799561 563.9 8.01996 541.92 13.98 529.28L180.84 181.66L215.6 842.14Z" fill="#A4CD00"/>
<path d="M834.37 216.42L653.61 35.66C637.82 19.81 604.94 0.900024 577.13 0.900024C553.23 0.900024 529.77 5.68002 514.56 14.8L180.84 181.66L834.37 216.42Z" fill="#CCFF00"/>
<path d="M431.13 1057.66H869.13V869.95L542.37 765.66L243.41 869.95L431.13 1057.66Z" fill="#BDEC00"/>
<path d="M180.84 744.8C180.84 800.57 187.83 814.25 215.6 842.13L243.41 869.94H869.13L563.22 522.33L180.84 181.66V744.8Z" fill="#CCFF00"/>
<path d="M737.03 181.66H180.84L869.13 869.95H1056.84V438.9L834.37 216.42C803.12 185.05 775.37 181.66 737.03 181.66Z" fill="#A4CD00"/>
<path opacity="0.2" d="M222.56 849.09C194.75 821.17 187.8 793.66 187.8 744.8V188.61L180.85 181.66V744.8C180.84 793.66 180.84 807.21 222.56 849.09Z" fill="white"/>
<path opacity="0.2" d="M1049.89 431.95V863H862.18L869.13 869.95H1056.85V438.9L1049.89 431.95Z" fill="#263238"/>
<path opacity="0.2" d="M834.37 216.42C799.91 181.96 771.64 181.66 730.08 181.66H180.84L187.79 188.61H730.08C750.86 188.61 803.2 185.14 834.37 216.42Z" fill="white"/>
<path opacity="0.2" d="M1049.89 431.95L834.37 216.42L653.61 35.66C637.82 19.81 604.94 0.900024 577.13 0.900024C553.23 0.900024 529.77 5.68002 514.56 14.8L180.84 181.66L13.98 529.28C8.01996 541.92 0.0799561 563.89 0.0799561 577.95C0.0799561 608.3 13.43 639.36 34.84 661.38L201.42 826.76C205.41 831.62 210.08 836.6 215.6 842.14L222.55 849.09L243.41 869.95L424.17 1050.71L431.12 1057.66H862.17H869.12V869.95H1056.83V869.45V438.9L1049.89 431.95Z" fill="url(#paint0_radial_154_488)"/>
<defs>
<radialGradient id="paint0_radial_154_488" cx="0" cy="0" r="1" gradientUnits="userSpaceOnUse" gradientTransform="translate(528.463 529.28) scale(528.383 528.383)">
<stop stop-color="white" stop-opacity="0.1"/>
<stop offset="1" stop-color="white" stop-opacity="0"/>
</radialGradient>
</defs>
</svg>
