<svg width="448" height="449" viewBox="0 0 448 449" fill="none" xmlns="http://www.w3.org/2000/svg">
<path d="M439.8 168.5C432.1 137.6 417.5 114.3 386.4 114.3H346.3V161.7C346.3 198.5 315.1 229.5 279.5 229.5H172.7C143.5 229.5 119.3 254.5 119.3 283.8V385.6C119.3 414.6 144.5 431.6 172.7 439.9C206.5 449.8 239 451.6 279.5 439.9C306.4 432.1 332.9 416.4 332.9 385.6V344.9H226.2V331.3H386.4C417.5 331.3 429 309.6 439.8 277.1C451 243.6 450.5 211.4 439.8 168.5ZM286.2 372C297.3 372 306.3 381.1 306.3 392.3C306.3 403.6 297.3 412.7 286.2 412.7C275.2 412.7 266.1 403.5 266.1 392.3C266.2 381 275.2 372 286.2 372ZM167.8 216.1H274.6C304.3 216.1 328 191.6 328 161.8V59.9001C328 30.9001 303.6 9.20007 274.6 4.30007C238.8 -1.59993 199.9 -1.29993 167.8 4.40007C122.6 12.4001 114.4 29.1001 114.4 60.0001V100.7H221.3V114.3H74.3C43.2 114.3 16 133 7.50002 168.5C-2.29998 209.2 -2.69998 234.6 7.50002 277.1C15.1 308.7 33.2 331.3 64.3 331.3H101V282.5C101 247.2 131.5 216.1 167.8 216.1ZM161.1 73.5001C150 73.5001 141 64.4001 141 53.2001C141.1 41.9001 150 32.8001 161.1 32.8001C172.1 32.8001 181.2 42.0001 181.2 53.2001C181.2 64.4001 172.2 73.5001 161.1 73.5001Z" fill="#CCFF00"/>
</svg>
