<svg width="512" height="414" viewBox="0 0 512 414" fill="none" xmlns="http://www.w3.org/2000/svg">
<path d="M216.3 109.4H137C97 98.9 6.5 101.6 6.5 184.2C6.5 214.3 21.5 235.4 41.5 245.2C16.4 268.2 4.5 279.1 4.5 294.4C4.5 305.4 9 315.5 22.4 321.2C8.1 334.6 0 344.4 0 362.7C0 394.8 28.1 413.5 101.6 413.5C172.4 413.5 213.4 387.1 213.4 340.3C213.4 281.6 168.2 283.8 61.8 277.3L75.2 255.7C102.5 263.3 193.9 265.7 193.9 187.8C193.9 169.1 186.2 156.1 178.9 146.7L216.3 143.9V109.4ZM152.9 351.3C152.9 383.4 48 383.4 48 353.7C48 345.6 53.3 338.7 58.6 332.2C136.3 337.5 152.9 335.6 152.9 351.3ZM102.1 216.7C49.3 216.7 51.6 145.5 103.3 145.5C152.8 145.5 154.1 216.7 102.1 216.7ZM235.4 317.2V285.1C262.2 281.4 262.6 283.1 262.6 274.1V154.6C262.6 146.1 260.5 147.2 235.4 138.3L239.9 105.4H324V274.1C324 280.6 324.4 281.4 330.5 282.2L351.2 285V317.1L235.4 317.2ZM287.9 72.9C264.7 72.9 251.3 59.5 251.3 36.3C251.3 13.1 264.7 0.5 287.9 0.5C311.5 0.5 324.9 13.1 324.9 36.3C324.9 59.5 311.5 72.9 287.9 72.9ZM512 301.5C494.5 310 468.9 317.8 445.7 317.8C397.3 317.8 379 298.3 379 252.3V145.8C379 140.4 380.1 141.7 347.3 141.7V105.5C383.1 101.4 397.3 83.5 401.8 39.2H440.4C440.4 105 439.1 101 443.7 101H501V141.7H440.4V238.9C440.4 245.8 435.5 290.3 501 265.7L512 301.5Z" fill="#CCFF00"/>
</svg>
