<svg width="379" height="512" viewBox="0 0 379 512" fill="none" xmlns="http://www.w3.org/2000/svg">
<path d="M275.7 312.9C285.5 306.2 299.1 300.4 299.1 300.4C299.1 300.4 260.4 307.4 221.9 310.6C174.8 314.5 124.2 315.3 98.7999 311.9C38.6999 303.9 131.8 281.8 131.8 281.8C131.8 281.8 95.6999 279.4 51.1999 300.8C-1.30008 326.2 181.2 337.8 275.7 312.9ZM190.3 280.8C171.3 238.1 107.2 200.6 190.3 135C294 53.2 240.8 0 240.8 0C262.3 84.5 165.2 110.1 130.1 162.6C106.2 198.5 141.8 237 190.3 280.8ZM304.9 104.6C305 104.6 129.7 148.4 213.4 244.8C238.1 273.2 206.9 298.8 206.9 298.8C206.9 298.8 269.6 266.4 240.8 225.9C213.9 188.1 193.3 169.3 304.9 104.6ZM298.8 375.1C298.253 376.053 297.581 376.927 296.8 377.7C425.1 344 377.9 258.8 316.6 280.4C313.288 281.615 310.427 283.813 308.4 286.7C311.98 285.405 315.658 284.401 319.4 283.7C350.4 277.2 394.9 325.2 298.8 375.1ZM346 437.4C346 437.4 360.5 449.3 330.1 458.6C272.2 476.1 89.2999 481.4 38.4999 459.3C20.1999 451.4 54.4999 440.3 65.2999 438C76.4999 435.6 82.9999 436 82.9999 436C62.6999 421.7 -48.3001 464.1 26.5999 476.2C230.8 509.4 399 461.3 346 437.4ZM122.4 396C43.6999 418 170.3 463.4 270.5 420.5C260.728 416.703 251.294 412.087 242.3 406.7C197.6 415.2 176.9 415.8 136.3 411.2C102.8 407.4 122.4 396 122.4 396ZM302.2 493.2C223.5 508 126.4 506.3 68.8999 496.8C68.8999 496.7 80.6999 506.5 141.3 510.4C233.5 516.3 375.1 507.1 378.4 463.5C378.4 463.5 372 480 302.2 493.2ZM258.6 353C199.4 364.4 165.1 364.1 121.8 359.6C88.2999 356.1 110.2 339.9 110.2 339.9C23.3999 368.7 158.4 401.3 279.7 365.8C271.861 363.031 264.677 358.673 258.6 353Z" fill="#CCFF00"/>
</svg>
