<svg width="640" height="338" viewBox="0 0 640 338" fill="none" xmlns="http://www.w3.org/2000/svg">
<path d="M320 17.5C491.4 17.5 623.2 89.7 623.2 169C623.2 248.3 491.3 320.5 320 320.5C148.6 320.5 16.8 248.3 16.8 169C16.8 89.7 148.7 17.5 320 17.5ZM320 0.699951C143.3 0.699951 0 76 0 169C0 262 143.3 337.3 320 337.3C496.7 337.3 640 262 640 169C640 76 496.7 0.699951 320 0.699951ZM218.2 155.5C210.3 196 182.4 191.8 148.1 191.8L161.8 121.2C199.8 121.2 225.6 117.1 218.2 155.5ZM97.4 263.3H134.1L142.8 218.5C183.9 218.5 209.4 221.5 233 199.4C259.1 175.4 265.9 132.7 247.3 111.3C237.6 100.1 222 94.6 200.8 94.6H130.1L97.4 263.3ZM283.1 49.7H319.6L310.9 94.5C342.4 94.5 371.6 92.2 385.7 105.2C400.5 118.8 393.4 136.2 377.4 218.3H340.4C355.8 138.9 358.7 132.3 353.1 126.3C347.7 120.5 335.4 121.7 305.7 121.7L286.9 218.3H250.4L283.1 49.7ZM505 155.5C497 196.6 468.3 191.8 434.9 191.8L448.6 121.2C486.8 121.2 512.4 117.1 505 155.5ZM384.2 263.3H421L429.7 218.5C472.9 218.5 496.8 221 519.9 199.4C546 175.4 552.8 132.7 534.2 111.3C524.5 100.1 508.9 94.6 487.7 94.6H417L384.2 263.3Z" fill="#CCFF00"/>
</svg>
