<svg width="732" height="800" viewBox="0 0 732 800" fill="none" xmlns="http://www.w3.org/2000/svg">
<path d="M731.282 279.122H622.94V172.964L438.447 0H0.717773V800H622.94V685.182H731.282V279.122ZM664.616 618.516H197.949V345.789H664.616V618.516Z" fill="#CCFF00"/>
<path d="M298.602 522.429C293.011 522.429 287.562 521.749 282.247 520.385C276.931 519.022 272.091 517.353 267.731 515.376C263.369 513.402 259.587 511.425 256.384 509.447C253.18 507.473 250.967 505.869 249.74 504.642L237.269 528.971C245.718 534.971 255.26 539.602 265.891 542.873C276.522 546.145 287.287 547.78 298.193 547.78C305.28 547.78 312.06 546.993 318.535 545.429C325.007 543.862 330.731 541.376 335.709 537.967C340.682 534.562 344.635 530.096 347.567 524.576C350.495 519.056 351.962 512.411 351.962 504.642C351.962 497.967 350.869 492.342 348.691 487.776C346.509 483.211 343.407 479.291 339.389 476.02C335.367 472.749 330.46 470.025 324.669 467.842C318.875 465.665 312.433 463.62 305.349 461.709C299.895 460.349 295.091 459.051 290.935 457.825C286.775 456.598 283.338 455.238 280.611 453.736C277.882 452.238 275.807 450.5 274.375 448.522C272.944 446.549 272.229 444.06 272.229 441.06C272.229 435.882 274.135 431.86 277.953 428.998C281.767 426.136 287.562 424.705 295.331 424.705C299.691 424.705 303.987 425.251 308.211 426.34C312.433 427.433 316.353 428.762 319.967 430.327C323.578 431.896 326.642 433.496 329.167 435.131C331.687 436.767 333.424 438.065 334.38 439.016L346.851 416.118C340.442 411.758 332.949 407.976 324.362 404.771C315.775 401.571 306.371 399.967 296.149 399.967C288.789 399.967 281.904 400.956 275.5 402.931C269.091 404.909 263.469 407.805 258.633 411.62C253.793 415.438 250.011 420.207 247.287 425.931C244.558 431.656 243.198 438.198 243.198 445.558C243.198 451.149 244.047 455.953 245.753 459.971C247.458 463.993 250.013 467.536 253.42 470.602C256.824 473.669 261.087 476.327 266.198 478.576C271.309 480.825 277.34 482.905 284.291 484.811C290.015 486.447 295.193 487.949 299.829 489.309C304.46 490.673 308.415 492.171 311.687 493.807C314.958 495.442 317.478 497.351 319.251 499.531C321.02 501.713 321.909 504.371 321.909 507.505C321.907 517.456 314.14 522.429 298.602 522.429Z" fill="#CCFF00"/>
<path d="M383.953 524.267C390.153 531.084 397.582 536.604 406.238 540.827C414.891 545.053 424.533 547.164 435.167 547.164C442.118 547.164 448.66 546.244 454.793 544.404C460.927 542.564 466.651 540.009 471.969 536.738L480.349 546.142H506.927L487.096 523.858C493.091 517.182 497.76 509.547 501.1 500.96C504.438 492.373 506.109 483.378 506.109 473.973C506.109 464.844 504.402 455.849 500.998 446.987C497.591 438.129 492.82 430.222 486.689 423.271C480.553 416.32 473.16 410.698 464.507 406.404C455.849 402.111 446.276 399.964 435.782 399.964C425.558 399.964 416.084 401.975 407.364 405.995C398.64 410.018 391.111 415.435 384.773 422.249C378.433 429.064 373.458 436.902 369.849 445.76C366.236 454.62 364.431 463.889 364.431 473.564C364.431 482.835 366.136 491.898 369.542 500.755C372.947 509.618 377.749 517.455 383.953 524.267ZM395.811 455.88C397.651 450.089 400.34 444.875 403.887 440.24C407.431 435.607 411.86 431.893 417.176 429.098C422.491 426.307 428.553 424.907 435.371 424.907C441.913 424.907 447.809 426.271 453.056 428.995C458.3 431.724 462.731 435.333 466.344 439.831C469.953 444.329 472.749 449.509 474.724 455.369C476.7 461.231 477.689 467.298 477.689 473.564C477.689 478.88 476.94 484.129 475.44 489.307C473.938 494.489 471.827 499.258 469.102 503.618L459.084 492.373H432.504L454.587 517.316C451.858 518.818 448.893 520.009 445.693 520.893C442.489 521.78 439.049 522.222 435.369 522.222C428.689 522.222 422.727 520.862 417.48 518.133C412.233 515.409 407.802 511.795 404.191 507.298C400.578 502.8 397.818 497.622 395.909 491.76C394 485.902 393.047 479.835 393.047 473.564C393.051 467.569 393.971 461.675 395.811 455.88Z" fill="#CCFF00"/>
<path d="M629.796 521.407H555.789V400.989H527.573V546.145H629.796V521.407Z" fill="#CCFF00"/>
</svg>
